<svg xmlns="http://www.w3.org/2000/svg" xmlns:xlink="http://www.w3.org/1999/xlink" width="2000" zoomAndPan="magnify" viewBox="0 0 1500 449.999984" height="600" preserveAspectRatio="xMidYMid meet" version="1.0"><defs><g/></defs><g fill="#000000" fill-opacity="1"><g transform="translate(240.10045, 257.999966)"><g><path d="M 60.90625 2.140625 C 50.65625 2.140625 41.257812 -0.300781 32.71875 -5.1875 C 24.1875 -10.070312 17.429688 -16.734375 12.453125 -25.171875 C 7.472656 -33.617188 4.984375 -42.921875 4.984375 -53.078125 C 4.984375 -63.421875 7.519531 -72.71875 12.59375 -80.96875 C 17.664062 -89.21875 24.519531 -95.664062 33.15625 -100.3125 C 41.789062 -104.96875 51.179688 -107.296875 61.328125 -107.296875 C 69.109375 -107.296875 76.671875 -105.65625 84.015625 -102.375 C 91.367188 -99.101562 97.703125 -94.617188 103.015625 -88.921875 C 108.328125 -83.234375 111.984375 -76.929688 113.984375 -70.015625 L 83.8125 -70.015625 C 81.34375 -74.378906 78.113281 -77.742188 74.125 -80.109375 C 70.144531 -82.484375 65.644531 -83.671875 60.625 -83.671875 C 55.113281 -83.671875 50.175781 -82.316406 45.8125 -79.609375 C 41.457031 -76.910156 38.046875 -73.210938 35.578125 -68.515625 C 33.109375 -63.816406 31.875 -58.671875 31.875 -53.078125 C 31.875 -47.191406 33.054688 -41.851562 35.421875 -37.0625 C 37.796875 -32.269531 41.164062 -28.472656 45.53125 -25.671875 C 49.894531 -22.878906 54.972656 -21.484375 60.765625 -21.484375 C 67.023438 -21.484375 72.382812 -22.953125 76.84375 -25.890625 C 81.300781 -28.835938 84.335938 -33.015625 85.953125 -38.421875 L 54.5 -38.421875 L 54.5 -59.90625 L 117.109375 -59.90625 L 117.109375 -53.9375 C 117.109375 -44.257812 114.832031 -35.125 110.28125 -26.53125 C 105.726562 -17.945312 99.207031 -11.019531 90.71875 -5.75 C 82.226562 -0.488281 72.289062 2.140625 60.90625 2.140625 Z M 60.90625 2.140625 "/></g></g></g><g fill="#000000" fill-opacity="1"><g transform="translate(358.769287, 257.999966)"><g><path d="M 47.390625 2.421875 C 39.421875 2.421875 32.207031 0.597656 25.75 -3.046875 C 19.300781 -6.703125 14.203125 -11.707031 10.453125 -18.0625 C 6.710938 -24.425781 4.84375 -31.59375 4.84375 -39.5625 C 4.84375 -47.53125 6.738281 -54.710938 10.53125 -61.109375 C 14.320312 -67.515625 19.46875 -72.519531 25.96875 -76.125 C 32.46875 -79.726562 39.609375 -81.53125 47.390625 -81.53125 C 55.265625 -81.53125 62.445312 -79.726562 68.9375 -76.125 C 75.4375 -72.519531 80.5625 -67.515625 84.3125 -61.109375 C 88.0625 -54.710938 89.9375 -47.625 89.9375 -39.84375 C 89.9375 -31.78125 88.0625 -24.519531 84.3125 -18.0625 C 80.5625 -11.613281 75.4375 -6.585938 68.9375 -2.984375 C 62.445312 0.617188 55.265625 2.421875 47.390625 2.421875 Z M 66.3125 -39.5625 C 66.3125 -43.070312 65.476562 -46.34375 63.8125 -49.375 C 62.15625 -52.414062 59.878906 -54.859375 56.984375 -56.703125 C 54.097656 -58.554688 50.851562 -59.484375 47.25 -59.484375 C 43.832031 -59.484375 40.695312 -58.582031 37.84375 -56.78125 C 35 -54.976562 32.722656 -52.535156 31.015625 -49.453125 C 29.304688 -46.367188 28.453125 -43.070312 28.453125 -39.5625 C 28.453125 -35.957031 29.28125 -32.632812 30.9375 -29.59375 C 32.601562 -26.5625 34.882812 -24.144531 37.78125 -22.34375 C 40.675781 -20.539062 43.878906 -19.640625 47.390625 -19.640625 C 50.992188 -19.640625 54.238281 -20.5625 57.125 -22.40625 C 60.019531 -24.257812 62.273438 -26.703125 63.890625 -29.734375 C 65.503906 -32.773438 66.3125 -36.050781 66.3125 -39.5625 Z M 66.3125 -39.5625 "/></g></g></g><g fill="#000000" fill-opacity="1"><g transform="translate(450.68779, 257.999966)"><g><path d="M 47.390625 2.421875 C 39.421875 2.421875 32.207031 0.597656 25.75 -3.046875 C 19.300781 -6.703125 14.203125 -11.707031 10.453125 -18.0625 C 6.710938 -24.425781 4.84375 -31.59375 4.84375 -39.5625 C 4.84375 -47.53125 6.738281 -54.710938 10.53125 -61.109375 C 14.320312 -67.515625 19.46875 -72.519531 25.96875 -76.125 C 32.46875 -79.726562 39.609375 -81.53125 47.390625 -81.53125 C 55.265625 -81.53125 62.445312 -79.726562 68.9375 -76.125 C 75.4375 -72.519531 80.5625 -67.515625 84.3125 -61.109375 C 88.0625 -54.710938 89.9375 -47.625 89.9375 -39.84375 C 89.9375 -31.78125 88.0625 -24.519531 84.3125 -18.0625 C 80.5625 -11.613281 75.4375 -6.585938 68.9375 -2.984375 C 62.445312 0.617188 55.265625 2.421875 47.390625 2.421875 Z M 66.3125 -39.5625 C 66.3125 -43.070312 65.476562 -46.34375 63.8125 -49.375 C 62.15625 -52.414062 59.878906 -54.859375 56.984375 -56.703125 C 54.097656 -58.554688 50.851562 -59.484375 47.25 -59.484375 C 43.832031 -59.484375 40.695312 -58.582031 37.84375 -56.78125 C 35 -54.976562 32.722656 -52.535156 31.015625 -49.453125 C 29.304688 -46.367188 28.453125 -43.070312 28.453125 -39.5625 C 28.453125 -35.957031 29.28125 -32.632812 30.9375 -29.59375 C 32.601562 -26.5625 34.882812 -24.144531 37.78125 -22.34375 C 40.675781 -20.539062 43.878906 -19.640625 47.390625 -19.640625 C 50.992188 -19.640625 54.238281 -20.5625 57.125 -22.40625 C 60.019531 -24.257812 62.273438 -26.703125 63.890625 -29.734375 C 65.503906 -32.773438 66.3125 -36.050781 66.3125 -39.5625 Z M 66.3125 -39.5625 "/></g></g></g><g fill="#000000" fill-opacity="1"><g transform="translate(542.606293, 257.999966)"><g><path d="M 44.53125 2.5625 C 36.945312 2.5625 30.140625 0.757812 24.109375 -2.84375 C 18.085938 -6.445312 13.367188 -11.398438 9.953125 -17.703125 C 6.546875 -24.015625 4.84375 -31.109375 4.84375 -38.984375 C 4.84375 -46.953125 6.570312 -54.1875 10.03125 -60.6875 C 13.488281 -67.1875 18.226562 -72.285156 24.25 -75.984375 C 30.28125 -79.679688 37.039062 -81.53125 44.53125 -81.53125 C 49.5625 -81.53125 53.972656 -80.648438 57.765625 -78.890625 C 61.566406 -77.140625 64.460938 -74.703125 66.453125 -71.578125 L 66.734375 -71.578125 L 66.734375 -78.96875 L 90.359375 -78.96875 L 90.359375 -8.390625 C 90.359375 2.328125 88.9375 10.390625 86.09375 15.796875 C 83.144531 21.484375 77.972656 26.128906 70.578125 29.734375 C 63.179688 33.335938 54.691406 35.140625 45.109375 35.140625 C 37.898438 35.140625 31.472656 33.90625 25.828125 31.4375 C 20.179688 28.976562 15.671875 25.632812 12.296875 21.40625 C 8.929688 17.1875 6.921875 12.519531 6.265625 7.40625 L 33.578125 7.40625 C 35.953125 12.613281 40.554688 15.21875 47.390625 15.21875 C 53.453125 15.21875 58.164062 13.296875 61.53125 9.453125 C 64.90625 5.617188 66.59375 0.144531 66.59375 -6.96875 L 66.59375 -9.25 C 64.882812 -5.550781 62.015625 -2.65625 57.984375 -0.5625 C 53.953125 1.519531 49.46875 2.5625 44.53125 2.5625 Z M 66.734375 -39.125 C 66.734375 -44.914062 64.929688 -49.753906 61.328125 -53.640625 C 57.722656 -57.535156 53.078125 -59.484375 47.390625 -59.484375 C 43.972656 -59.484375 40.816406 -58.601562 37.921875 -56.84375 C 35.023438 -55.09375 32.722656 -52.695312 31.015625 -49.65625 C 29.304688 -46.625 28.453125 -43.351562 28.453125 -39.84375 C 28.453125 -34.15625 30.207031 -29.34375 33.71875 -25.40625 C 37.226562 -21.46875 41.785156 -19.5 47.390625 -19.5 C 53.078125 -19.5 57.722656 -21.347656 61.328125 -25.046875 C 64.929688 -28.742188 66.734375 -33.4375 66.734375 -39.125 Z M 66.734375 -39.125 "/></g></g></g><g fill="#000000" fill-opacity="1"><g transform="translate(638.366623, 257.999966)"><g><path d="M 32.15625 -105.296875 L 32.15625 0 L 8.53125 0 L 8.53125 -105.296875 Z M 32.15625 -105.296875 "/></g></g></g><g fill="#000000" fill-opacity="1"><g transform="translate(676.215299, 257.999966)"><g><path d="M 46.109375 -17.359375 C 49.234375 -17.359375 51.910156 -17.953125 54.140625 -19.140625 C 56.367188 -20.328125 58.476562 -22.203125 60.46875 -24.765625 L 84.671875 -24.765625 C 80.867188 -16.128906 75.578125 -9.414062 68.796875 -4.625 C 62.015625 0.164062 54.453125 2.5625 46.109375 2.5625 C 38.609375 2.5625 31.65625 0.710938 25.25 -2.984375 C 18.851562 -6.679688 13.753906 -11.734375 9.953125 -18.140625 C 6.160156 -24.546875 4.265625 -31.59375 4.265625 -39.28125 C 4.265625 -46.769531 6.113281 -53.765625 9.8125 -60.265625 C 13.519531 -66.765625 18.523438 -71.957031 24.828125 -75.84375 C 31.140625 -79.726562 38.085938 -81.671875 45.671875 -81.671875 C 53.453125 -81.671875 60.519531 -79.773438 66.875 -75.984375 C 73.226562 -72.191406 78.234375 -67.019531 81.890625 -60.46875 C 85.546875 -53.925781 87.375 -46.625 87.375 -38.5625 C 87.375 -36.28125 87.179688 -34.191406 86.796875 -32.296875 L 27.609375 -32.296875 C 28.273438 -27.835938 30.3125 -24.234375 33.71875 -21.484375 C 37.132812 -18.734375 41.265625 -17.359375 46.109375 -17.359375 Z M 45.671875 -61.75 C 41.304688 -61.75 37.488281 -60.539062 34.21875 -58.125 C 30.945312 -55.707031 28.835938 -52.410156 27.890625 -48.234375 L 63.75 -48.234375 C 62.800781 -52.316406 60.6875 -55.585938 57.40625 -58.046875 C 54.132812 -60.515625 50.222656 -61.75 45.671875 -61.75 Z M 45.671875 -61.75 "/></g></g></g><g fill="#000000" fill-opacity="1"><g transform="translate(806.40932, 257.999966)"><g><path d="M 43.96875 -105.296875 C 56.875 -105.296875 67.164062 -103.160156 74.84375 -98.890625 C 82.4375 -94.523438 88.390625 -88.359375 92.703125 -80.390625 C 97.023438 -72.421875 99.1875 -63.175781 99.1875 -52.65625 C 99.1875 -35.570312 94.460938 -22.523438 85.015625 -13.515625 C 75.578125 -4.503906 62.507812 0 45.8125 0 L 8.109375 0 L 8.109375 -105.296875 Z M 72.28125 -52.5 C 72.28125 -61.800781 70.070312 -68.988281 65.65625 -74.0625 C 61.25 -79.132812 55.113281 -81.671875 47.25 -81.671875 L 35 -81.671875 L 35 -23.625 L 47.09375 -23.625 C 54.96875 -23.625 61.132812 -26.085938 65.59375 -31.015625 C 70.050781 -35.953125 72.28125 -43.113281 72.28125 -52.5 Z M 72.28125 -52.5 "/></g></g></g><g fill="#000000" fill-opacity="1"><g transform="translate(909.14178, 257.999966)"><g><path d="M 96.484375 -79.109375 L 74 0 L 56.203125 0 L 33.4375 -79.828125 L 34.296875 0 L 9.53125 0 L 9.53125 -105.296875 L 44.109375 -105.296875 L 65.03125 -36 L 65.3125 -36 L 85.953125 -105.296875 L 120.671875 -105.296875 L 120.671875 0 L 95.90625 0 L 96.765625 -78.828125 Z M 96.484375 -79.109375 "/></g></g></g><g fill="#000000" fill-opacity="1"><g transform="translate(1036.490247, 257.999966)"><g><path d="M 60.328125 -83.671875 C 54.921875 -83.671875 50.0625 -82.269531 45.75 -79.46875 C 41.4375 -76.675781 38.09375 -72.929688 35.71875 -68.234375 C 33.34375 -63.535156 32.15625 -58.4375 32.15625 -52.9375 C 32.15625 -47.238281 33.363281 -41.992188 35.78125 -37.203125 C 38.207031 -32.421875 41.578125 -28.628906 45.890625 -25.828125 C 50.203125 -23.023438 55.0625 -21.625 60.46875 -21.625 C 65.882812 -21.625 70.769531 -23.140625 75.125 -26.171875 C 79.488281 -29.210938 83.050781 -33.628906 85.8125 -39.421875 L 113.984375 -39.421875 C 111.796875 -31.066406 108.09375 -23.78125 102.875 -17.5625 C 97.65625 -11.351562 91.394531 -6.539062 84.09375 -3.125 C 76.789062 0.28125 69.015625 1.984375 60.765625 1.984375 C 53.265625 1.984375 46.171875 0.660156 39.484375 -1.984375 C 32.796875 -4.640625 26.796875 -8.578125 21.484375 -13.796875 C 15.890625 -19.203125 11.785156 -25.25 9.171875 -31.9375 C 6.566406 -38.632812 5.265625 -46.0625 5.265625 -54.21875 C 5.265625 -63.414062 7.679688 -72.09375 12.515625 -80.25 C 17.359375 -88.414062 23.953125 -94.960938 32.296875 -99.890625 C 40.648438 -104.828125 49.710938 -107.296875 59.484375 -107.296875 C 66.785156 -107.296875 73.421875 -106.25 79.390625 -104.15625 C 85.367188 -102.070312 90.96875 -98.800781 96.1875 -94.34375 C 106.25 -85.707031 112.179688 -76.03125 113.984375 -65.3125 L 85.8125 -65.3125 C 83.53125 -71.007812 80.085938 -75.492188 75.484375 -78.765625 C 70.890625 -82.035156 65.835938 -83.671875 60.328125 -83.671875 Z M 60.328125 -83.671875 "/></g></g></g><g fill="#000000" fill-opacity="1"><g transform="translate(1152.028691, 257.999966)"><g><path d="M 35.71875 -15.21875 L 30.171875 0 L 1.28125 0 L 43.546875 -105.296875 L 64.75 -105.296875 L 106.578125 0 L 77.40625 0 L 72.28125 -15.21875 Z M 43.109375 -36.5625 L 65.171875 -36.5625 L 54.359375 -72.421875 L 53.9375 -72.578125 Z M 43.109375 -36.5625 "/></g></g></g><g fill="#000000" fill-opacity="1"><g transform="translate(571.23811, 85.426082)"><g><path d="M 3.59375 -29.953125 L 15.828125 -29.953125 C 17.628906 -29.953125 19.234375 -29.703125 20.640625 -29.203125 C 22.054688 -28.703125 23.253906 -27.992188 24.234375 -27.078125 C 25.222656 -26.171875 25.976562 -25.082031 26.5 -23.8125 C 27.03125 -22.539062 27.296875 -21.132812 27.296875 -19.59375 L 27.296875 -19.515625 C 27.296875 -17.773438 26.984375 -16.25 26.359375 -14.9375 C 25.734375 -13.625 24.867188 -12.523438 23.765625 -11.640625 C 22.671875 -10.753906 21.390625 -10.085938 19.921875 -9.640625 C 18.453125 -9.203125 16.875 -8.984375 15.1875 -8.984375 L 10.1875 -8.984375 L 10.1875 0 L 3.59375 0 Z M 15.40625 -14.84375 C 17.0625 -14.84375 18.34375 -15.28125 19.25 -16.15625 C 20.164062 -17.03125 20.625 -18.109375 20.625 -19.390625 L 20.625 -19.46875 C 20.625 -20.957031 20.144531 -22.085938 19.1875 -22.859375 C 18.238281 -23.628906 16.9375 -24.015625 15.28125 -24.015625 L 10.1875 -24.015625 L 10.1875 -14.84375 Z M 15.40625 -14.84375 "/></g></g></g><g fill="#000000" fill-opacity="1"><g transform="translate(600.677245, 85.426082)"><g><path d="M 3.59375 -29.953125 L 17.296875 -29.953125 C 21.085938 -29.953125 23.992188 -28.941406 26.015625 -26.921875 C 27.734375 -25.203125 28.59375 -22.921875 28.59375 -20.078125 L 28.59375 -19.984375 C 28.59375 -17.554688 28 -15.578125 26.8125 -14.046875 C 25.625 -12.523438 24.078125 -11.410156 22.171875 -10.703125 L 29.484375 0 L 21.78125 0 L 15.359375 -9.59375 L 10.1875 -9.59375 L 10.1875 0 L 3.59375 0 Z M 16.859375 -15.40625 C 18.484375 -15.40625 19.726562 -15.789062 20.59375 -16.5625 C 21.46875 -17.332031 21.90625 -18.359375 21.90625 -19.640625 L 21.90625 -19.734375 C 21.90625 -21.160156 21.445312 -22.226562 20.53125 -22.9375 C 19.625 -23.65625 18.359375 -24.015625 16.734375 -24.015625 L 10.1875 -24.015625 L 10.1875 -15.40625 Z M 16.859375 -15.40625 "/></g></g></g><g fill="#000000" fill-opacity="1"><g transform="translate(632.469791, 85.426082)"><g><path d="M 18.140625 0.515625 C 15.828125 0.515625 13.703125 0.109375 11.765625 -0.703125 C 9.828125 -1.515625 8.148438 -2.613281 6.734375 -4 C 5.328125 -5.382812 4.226562 -7.007812 3.4375 -8.875 C 2.65625 -10.75 2.265625 -12.753906 2.265625 -14.890625 L 2.265625 -14.984375 C 2.265625 -17.117188 2.664062 -19.117188 3.46875 -20.984375 C 4.269531 -22.859375 5.375 -24.5 6.78125 -25.90625 C 8.195312 -27.320312 9.878906 -28.4375 11.828125 -29.25 C 13.785156 -30.0625 15.921875 -30.46875 18.234375 -30.46875 C 20.546875 -30.46875 22.671875 -30.0625 24.609375 -29.25 C 26.546875 -28.4375 28.21875 -27.335938 29.625 -25.953125 C 31.039062 -24.566406 32.140625 -22.941406 32.921875 -21.078125 C 33.710938 -19.210938 34.109375 -17.207031 34.109375 -15.0625 L 34.109375 -14.984375 C 34.109375 -12.835938 33.707031 -10.828125 32.90625 -8.953125 C 32.113281 -7.085938 31.007812 -5.445312 29.59375 -4.03125 C 28.175781 -2.625 26.488281 -1.515625 24.53125 -0.703125 C 22.582031 0.109375 20.453125 0.515625 18.140625 0.515625 Z M 18.234375 -5.5625 C 19.546875 -5.5625 20.753906 -5.800781 21.859375 -6.28125 C 22.972656 -6.769531 23.921875 -7.441406 24.703125 -8.296875 C 25.492188 -9.160156 26.109375 -10.15625 26.546875 -11.28125 C 26.992188 -12.40625 27.21875 -13.609375 27.21875 -14.890625 L 27.21875 -14.984375 C 27.21875 -16.265625 26.992188 -17.472656 26.546875 -18.609375 C 26.109375 -19.753906 25.484375 -20.753906 24.671875 -21.609375 C 23.859375 -22.460938 22.894531 -23.140625 21.78125 -23.640625 C 20.664062 -24.140625 19.453125 -24.390625 18.140625 -24.390625 C 16.804688 -24.390625 15.585938 -24.144531 14.484375 -23.65625 C 13.390625 -23.175781 12.445312 -22.507812 11.65625 -21.65625 C 10.875 -20.800781 10.257812 -19.804688 9.8125 -18.671875 C 9.375 -17.546875 9.15625 -16.34375 9.15625 -15.0625 L 9.15625 -14.984375 C 9.15625 -13.691406 9.375 -12.472656 9.8125 -11.328125 C 10.257812 -10.191406 10.890625 -9.195312 11.703125 -8.34375 C 12.515625 -7.488281 13.46875 -6.8125 14.5625 -6.3125 C 15.664062 -5.8125 16.890625 -5.5625 18.234375 -5.5625 Z M 18.234375 -5.5625 "/></g></g></g><g fill="#000000" fill-opacity="1"><g transform="translate(669.696562, 85.426082)"><g><path d="M 10.578125 -23.875 L 1.453125 -23.875 L 1.453125 -29.953125 L 26.28125 -29.953125 L 26.28125 -23.875 L 17.15625 -23.875 L 17.15625 0 L 10.578125 0 Z M 10.578125 -23.875 "/></g></g></g><g fill="#000000" fill-opacity="1"><g transform="translate(698.279909, 85.426082)"><g><path d="M 3.59375 -29.953125 L 26.1875 -29.953125 L 26.1875 -24.09375 L 10.140625 -24.09375 L 10.140625 -18.015625 L 24.265625 -18.015625 L 24.265625 -12.15625 L 10.140625 -12.15625 L 10.140625 -5.859375 L 26.40625 -5.859375 L 26.40625 0 L 3.59375 0 Z M 3.59375 -29.953125 "/></g></g></g><g fill="#000000" fill-opacity="1"><g transform="translate(727.804619, 85.426082)"><g><path d="M 17.625 0.515625 C 15.4375 0.515625 13.398438 0.113281 11.515625 -0.6875 C 9.628906 -1.488281 8 -2.578125 6.625 -3.953125 C 5.257812 -5.335938 4.191406 -6.972656 3.421875 -8.859375 C 2.648438 -10.742188 2.265625 -12.753906 2.265625 -14.890625 L 2.265625 -14.984375 C 2.265625 -17.117188 2.648438 -19.117188 3.421875 -20.984375 C 4.191406 -22.859375 5.257812 -24.5 6.625 -25.90625 C 8 -27.320312 9.640625 -28.4375 11.546875 -29.25 C 13.460938 -30.0625 15.578125 -30.46875 17.890625 -30.46875 C 19.285156 -30.46875 20.5625 -30.351562 21.71875 -30.125 C 22.875 -29.894531 23.921875 -29.582031 24.859375 -29.1875 C 25.804688 -28.789062 26.675781 -28.304688 27.46875 -27.734375 C 28.269531 -27.160156 29.015625 -26.53125 29.703125 -25.84375 L 25.5 -21.015625 C 24.332031 -22.066406 23.140625 -22.890625 21.921875 -23.484375 C 20.710938 -24.085938 19.351562 -24.390625 17.84375 -24.390625 C 16.59375 -24.390625 15.429688 -24.144531 14.359375 -23.65625 C 13.285156 -23.175781 12.363281 -22.507812 11.59375 -21.65625 C 10.820312 -20.800781 10.222656 -19.804688 9.796875 -18.671875 C 9.367188 -17.546875 9.15625 -16.34375 9.15625 -15.0625 L 9.15625 -14.984375 C 9.15625 -13.691406 9.367188 -12.472656 9.796875 -11.328125 C 10.222656 -10.191406 10.8125 -9.195312 11.5625 -8.34375 C 12.320312 -7.488281 13.238281 -6.8125 14.3125 -6.3125 C 15.382812 -5.8125 16.5625 -5.5625 17.84375 -5.5625 C 19.5625 -5.5625 21.007812 -5.875 22.1875 -6.5 C 23.375 -7.132812 24.550781 -7.992188 25.71875 -9.078125 L 29.921875 -4.84375 C 29.148438 -4.007812 28.347656 -3.265625 27.515625 -2.609375 C 26.691406 -1.953125 25.785156 -1.390625 24.796875 -0.921875 C 23.816406 -0.453125 22.738281 -0.0976562 21.5625 0.140625 C 20.394531 0.390625 19.082031 0.515625 17.625 0.515625 Z M 17.625 0.515625 "/></g></g></g><g fill="#000000" fill-opacity="1"><g transform="translate(760.239011, 85.426082)"><g><path d="M 10.578125 -23.875 L 1.453125 -23.875 L 1.453125 -29.953125 L 26.28125 -29.953125 L 26.28125 -23.875 L 17.15625 -23.875 L 17.15625 0 L 10.578125 0 Z M 10.578125 -23.875 "/></g></g></g><g fill="#000000" fill-opacity="1"><g transform="translate(788.82235, 85.426082)"><g><path d="M 3.59375 -29.953125 L 26.1875 -29.953125 L 26.1875 -24.09375 L 10.140625 -24.09375 L 10.140625 -18.015625 L 24.265625 -18.015625 L 24.265625 -12.15625 L 10.140625 -12.15625 L 10.140625 -5.859375 L 26.40625 -5.859375 L 26.40625 0 L 3.59375 0 Z M 3.59375 -29.953125 "/></g></g></g><g fill="#000000" fill-opacity="1"><g transform="translate(818.34706, 85.426082)"><g><path d="M 3.59375 -29.953125 L 15.28125 -29.953125 C 17.613281 -29.953125 19.757812 -29.570312 21.71875 -28.8125 C 23.675781 -28.0625 25.359375 -27.015625 26.765625 -25.671875 C 28.179688 -24.335938 29.273438 -22.765625 30.046875 -20.953125 C 30.816406 -19.140625 31.203125 -17.175781 31.203125 -15.0625 L 31.203125 -14.984375 C 31.203125 -12.867188 30.816406 -10.894531 30.046875 -9.0625 C 29.273438 -7.238281 28.179688 -5.65625 26.765625 -4.3125 C 25.359375 -2.976562 23.675781 -1.925781 21.71875 -1.15625 C 19.757812 -0.382812 17.613281 0 15.28125 0 L 3.59375 0 Z M 10.1875 -24.015625 L 10.1875 -5.953125 L 15.28125 -5.953125 C 16.625 -5.953125 17.847656 -6.164062 18.953125 -6.59375 C 20.066406 -7.019531 21.015625 -7.628906 21.796875 -8.421875 C 22.585938 -9.222656 23.203125 -10.164062 23.640625 -11.25 C 24.085938 -12.332031 24.3125 -13.546875 24.3125 -14.890625 L 24.3125 -14.984375 C 24.3125 -16.296875 24.085938 -17.503906 23.640625 -18.609375 C 23.203125 -19.722656 22.585938 -20.679688 21.796875 -21.484375 C 21.015625 -22.285156 20.066406 -22.90625 18.953125 -23.34375 C 17.847656 -23.789062 16.625 -24.015625 15.28125 -24.015625 Z M 10.1875 -24.015625 "/></g></g></g><g fill="#000000" fill-opacity="1"><g transform="translate(852.664159, 85.426082)"><g/></g></g><g fill="#000000" fill-opacity="1"><g transform="translate(866.356828, 85.426082)"><g><path d="M 3.59375 -29.953125 L 17.5 -29.953125 C 20.957031 -29.953125 23.566406 -29.066406 25.328125 -27.296875 C 26.703125 -25.929688 27.390625 -24.238281 27.390625 -22.21875 L 27.390625 -22.125 C 27.390625 -21.269531 27.28125 -20.515625 27.0625 -19.859375 C 26.851562 -19.203125 26.566406 -18.609375 26.203125 -18.078125 C 25.847656 -17.554688 25.4375 -17.09375 24.96875 -16.6875 C 24.5 -16.289062 23.992188 -15.945312 23.453125 -15.65625 C 25.191406 -15 26.5625 -14.109375 27.5625 -12.984375 C 28.5625 -11.859375 29.0625 -10.296875 29.0625 -8.296875 L 29.0625 -8.21875 C 29.0625 -6.84375 28.796875 -5.640625 28.265625 -4.609375 C 27.734375 -3.585938 26.972656 -2.734375 25.984375 -2.046875 C 25.003906 -1.367188 23.820312 -0.859375 22.4375 -0.515625 C 21.0625 -0.171875 19.53125 0 17.84375 0 L 3.59375 0 Z M 20.84375 -21.09375 C 20.84375 -22.09375 20.46875 -22.859375 19.71875 -23.390625 C 18.976562 -23.921875 17.910156 -24.1875 16.515625 -24.1875 L 10.015625 -24.1875 L 10.015625 -17.84375 L 16.09375 -17.84375 C 17.550781 -17.84375 18.707031 -18.09375 19.5625 -18.59375 C 20.414062 -19.09375 20.84375 -19.898438 20.84375 -21.015625 Z M 22.515625 -9.109375 C 22.515625 -10.109375 22.128906 -10.898438 21.359375 -11.484375 C 20.585938 -12.078125 19.34375 -12.375 17.625 -12.375 L 10.015625 -12.375 L 10.015625 -5.78125 L 17.84375 -5.78125 C 19.300781 -5.78125 20.441406 -6.039062 21.265625 -6.5625 C 22.097656 -7.09375 22.515625 -7.914062 22.515625 -9.03125 Z M 22.515625 -9.109375 "/></g></g></g><g fill="#000000" fill-opacity="1"><g transform="translate(898.106581, 85.426082)"><g><path d="M 12.03125 -11.8125 L 0.515625 -29.953125 L 8.21875 -29.953125 L 15.359375 -17.9375 L 22.640625 -29.953125 L 30.125 -29.953125 L 18.609375 -11.9375 L 18.609375 0 L 12.03125 0 Z M 12.03125 -11.8125 "/></g></g></g></svg>